<svg width="2500" height="1500" viewBox="0 0 2500 1500" fill="none" xmlns="http://www.w3.org/2000/svg">
<g clip-path="url(#clip0)">
<path d="M45.3721 610.936C20.9203 563.283 -19.2024 426.608 -24.1212 409.153L-249.384 928.615C-242.192 950.706 -31.4539 1077.22 -24.1211 984.266C-7.10667 768.57 178.267 869.924 45.3721 610.936Z" fill="#3040C4"/>
<path d="M64.1143 540.858C39.6625 493.205 -0.46018 356.53 -5.37896 339.075L-230.641 858.537C-223.45 880.628 -12.7117 1007.15 -5.37892 914.188C11.6355 698.492 197.009 799.846 64.1143 540.858Z" fill="#F3C6BD"/>
<path d="M64.3721 622.836C39.9203 575.183 -0.202367 438.508 -5.12115 421.053L-230.384 940.515C-223.192 962.606 -12.4539 1089.12 -5.1211 996.166C11.8933 780.47 197.267 881.824 64.3721 622.836Z" stroke="black"/>
<path d="M139.757 812.94L157.034 784.014L174.31 812.94H139.757Z" stroke="#292929"/>
<rect x="84.5" y="340.5" width="26.9549" height="26.9549" stroke="#292929"/>
<path d="M104.433 903.207C104.433 909.853 98.7373 915.286 91.6541 915.286C84.5708 915.286 78.8755 909.853 78.8755 903.207C78.8755 896.56 84.5708 891.127 91.6541 891.127C98.7373 891.127 104.433 896.56 104.433 903.207Z" stroke="#292929"/>
<path d="M26.6059 459.606L47.8176 480.818M47.8176 459.606L26.6059 480.818" stroke="#292929"/>
<rect x="2205.5" y="937.5" width="26.9549" height="26.9549" stroke="#292929"/>
<path d="M2320.61 792.606L2341.82 813.818M2341.82 792.606L2320.61 813.818" stroke="#292929"/>
<path d="M2243.61 685.606L2264.82 706.818M2264.82 685.606L2243.61 706.818" stroke="#292929"/>
</g>
<defs>
<clipPath id="clip0">
<rect width="2500" height="1500" fill="white"/>
</clipPath>
</defs>
</svg>
