<svg xmlns="http://www.w3.org/2000/svg" xmlns:xlink="http://www.w3.org/1999/xlink" version="1.1"
	x="0px" y="0px" viewBox="0 0 100 100" style="enable-background:new 0 0 100 100;max-width:100%"
	xml:space="preserve" height="100%"><path d="M90.2,44.2c-2.6-0.3-4.2-2-6-3.6c-1.5-1.3-2.8-2.9-4.4-4.1c-3.4-2.6-6.1-5.9-8.5-9.4c-0.9-1.3-1.8-2.6-3.1-3.5  c-1-0.7-1.5-1.7-1.8-2.8c-0.6-2-1.2-2.4-3.3-2.6c-1-0.1-1.9,0.1-2.3,0.9c-0.5,0.9-1,1.9-1,2.8c0,3.8-0.4,7.5,0.1,11.3  c0.1,0.7,0.1,1.6-1,1.7c-1.4,0.1-2.8,0.1-4.2-0.1c-1.7-0.3-3.4-0.7-5.1-0.6c-4.9,0.2-9.8,1.2-14.8,1c-2.7-0.1-5.3-0.5-8-0.5  c-4.5,0.1-9.1,0-13.7,0.1c-0.6,0-1.4-0.2-1.7,0.3c-0.5,0.9-1.3,1.4-1.9,2.1c-0.9,1.1-1.8,2.4-3.2,2.8c-0.7,0.2-0.9,0.7-0.9,1.2  c0,1.7-0.2,3.4-0.3,5.2c-0.2,3.5-0.2,7.1-0.3,10.6c0,0.7,0.1,1.4,0.8,1.8c1.5,0.9,3.1,1.5,4.9,1.1c0.9-0.2,1.8-0.2,2.8-0.2  c2.4,0.1,4.9,0.2,7.3,0.1c3.4-0.1,6.9,0.2,10.3,0.6c2.1,0.2,4.2,0.2,6.3-0.1c1.8-0.2,3.7-0.7,5.5-0.3c1.4,0.4,2.7,0.2,4,0.1  c0.6,0,1.3-0.3,1.9-0.3c2.3,0.1,4.6,0.3,6.9,0.4c1.6,0.1,1.7,0.4,1.6,1.9c-0.1,3.1-0.6,6.2,0.4,9.2c3.6-2,7.1-4.1,10.3-6.5  c7.2-5.4,14.1-11.3,22.4-15c0.1-0.1,0.1-0.1,0.2-0.2c1.3-1.3,3.1-2,4.4-3.6C93,45.5,91.8,44.3,90.2,44.2z M9.9,50.3  C9.6,50.2,9,50.2,9,49.7c0-0.5,0.6-0.7,1-0.8c0.4-0.1,0.3,0.4,0.4,0.7C10.1,49.8,10.6,50.4,9.9,50.3z M19,55.7  c0-0.3-0.1-0.8,0.3-0.7c0.6,0.1,0.5,0.8,0.8,1.2C19.7,56,19,56.7,19,55.7z M56.9,57.3c-0.1,0.1-0.4,0.2-0.5,0.1  c-0.3-0.2-0.1-0.6-0.1-0.9c0.1-0.3-0.1-0.7,0.3-1.1c0.4,0.3,0.4,0.7,0.4,1C57.1,56.7,57.3,57.1,56.9,57.3z M77.7,54.9  c0.3,0.8,0,1.6-0.4,2.4c-0.5-0.8-0.6-1.6-0.5-2.4c0.1-0.4,0.5-0.7,0.7-0.7C78.2,54.2,77.7,54.7,77.7,54.9z M81.7,52.1  c-0.2,0.7-0.3,1.4-0.4,2.1c-0.1,0.3-0.2,0.7-0.6,0.6c-0.3-0.1-0.2-0.5-0.3-0.7c0-0.3,0-0.6,0-1.1c0.1-0.4-0.3-1,0.3-1.5  c0.2-0.2,0.5-0.3,0.8-0.2C81.8,51.6,81.7,51.8,81.7,52.1z M83,45.9c-1.7,1.1-3.5,1.8-5.2,2.8c-4.9,3.1-9.7,6.3-13.2,11.1  c-0.7,1-1.9,1.8-2.8,2.7c-0.4,0.4-0.6,0-0.7-0.2c-0.1-0.4-0.2-1,0-1.2c0.9-0.9,0.4-1.4-0.2-2.2c-0.4-0.5-0.3-1.4-0.4-2.1  c-0.4-2.1-0.7-4.2-1.9-6.1c-0.4-0.7-0.5-1.5-0.7-2.3c-0.3,0.5-0.7,0.8-0.8,1.2c-0.5,1.5-1.6,1.2-2.8,1.2c-3.7-0.1-7.3-0.7-11-0.7  c-6.4-0.1-12.9,0.1-19.3,0c-2.4,0-4.8-0.4-7.2-0.8c-0.1,0-0.2-0.1-0.4-0.1c-0.7-0.2-1.6,0.3-2.1-0.4c-0.5-0.8-0.5-1.8-0.5-2.7  c0.1-2.8,0.7-5.5,0.4-8.3c-0.1-0.7,0.4-0.6,0.8-0.6c4.5,0.6,8.9,0.5,13.4,0.5c1.7,0,3.5,0.1,5.2,0.3c2.8,0.3,5.5,0,8.2-0.2  c4.2-0.3,8.3-1,12.5-0.2c1.4,0.3,2.8,0.1,4.2-0.1c0.8-0.1,1.4,0.2,2.1,0.2c1,0,1.5-0.3,1.7-1.3c0.1-0.7,0.4-1.3,0.4-2  c0.1-2.9,1.6-5.6,1.7-8.5c0.5,0.1,0.6,0.3,0.7,0.5c2.1,4,4.6,7.6,7.7,10.8c1.1,1.1,2.6,2,3.8,3.1c1.8,1.7,3.8,3.3,6,4.4  C83.8,45,83.7,45.4,83,45.9z" style="" fill="#3040c4"></path></svg>