<svg xmlns="http://www.w3.org/2000/svg" xmlns:xlink="http://www.w3.org/1999/xlink" version="1.1"
	x="0px" y="0px" viewBox="0 0 90 90" enable-background="new 0 0 90 90" xml:space="preserve"
	style="max-width:100%" height="100%"><path d="M48.7,15.7L48.7,15.7 M48.7,15.7l-4.5,23.7l16.3,0.1L38.3,71.6l4.5-26.1l-16.3-0.1L48.7,15.7 M48.7,11.7c-0.1,0-0.2,0-0.3,0  c-0.7,0.1-1.2,0.3-1.7,0.7c-0.3,0.2-0.6,0.5-0.8,0.7c-0.1,0.1-0.1,0.2-0.2,0.3L23.2,43.1c-0.9,1.2-1,2.8-0.3,4.2  c0.7,1.3,2.1,2.2,3.6,2.2l11.5,0.1l-3.6,21.4c-0.3,1.8,0.6,3.7,2.4,4.4c0.5,0.2,1.1,0.3,1.6,0.3c1.3,0,2.3-0.6,3.1-1.7l22.4-32.1  c0.9-1.2,1-2.8,0.3-4.2c-0.7-1.3-2.1-2.2-3.6-2.2l-11.5,0l3.6-18.8c0.1-0.3,0.1-0.6,0.1-0.9c0-2.2-1.7-3.9-3.9-4  C48.8,11.7,48.7,11.7,48.7,11.7L48.7,11.7z" style="" fill="#3040c4"></path></svg>