<svg width="91" height="14" viewBox="0 0 91 14" fill="none" xmlns="http://www.w3.org/2000/svg">
<path d="M25.5322 11.0001H20.8882V2.8401H22.5442V9.5361H25.5322V11.0001Z" fill="black"/>
<path d="M26.4043 11.0001V5.0001H28.0123V11.0001H26.4043ZM26.4043 4.2321V2.6001H28.0123V4.2321H26.4043Z" fill="black"/>
<path d="M31.1061 11.0001H29.4981V5.0001H31.0941V5.3361C31.6381 5.0161 32.1381 4.8561 32.5941 4.8561C33.3941 4.8561 33.9461 5.0921 34.2501 5.5641C34.5541 6.0361 34.7061 6.7641 34.7061 7.7481V11.0001H33.0981V7.7961C33.0981 7.2841 33.0381 6.9081 32.9181 6.6681C32.7981 6.4201 32.5581 6.2961 32.1981 6.2961C31.8701 6.2961 31.5541 6.3521 31.2501 6.4641L31.1061 6.5121V11.0001Z" fill="black"/>
<path d="M41.5669 11.7441C41.5669 12.4321 41.3029 12.9401 40.7749 13.2681C40.2469 13.5961 39.5309 13.7601 38.6269 13.7601C37.7309 13.7601 37.0389 13.6401 36.5509 13.4001C36.0709 13.1601 35.8309 12.7241 35.8309 12.0921C35.8309 11.5881 36.1189 11.1121 36.6949 10.6641C36.3989 10.4641 36.2509 10.1601 36.2509 9.7521C36.2509 9.5921 36.3709 9.3281 36.6109 8.9601L36.7189 8.7921C36.1749 8.4001 35.9029 7.8241 35.9029 7.0641C35.9029 6.2961 36.1309 5.7401 36.5869 5.3961C37.0509 5.0521 37.6629 4.8801 38.4229 4.8801C38.7669 4.8801 39.1069 4.9201 39.4429 5.0001L39.6349 5.0361L41.5669 4.9761V6.2601L40.6669 6.1881C40.8429 6.4601 40.9309 6.7321 40.9309 7.0041C40.9309 7.8041 40.7269 8.3561 40.3189 8.6601C39.9109 8.9641 39.2709 9.1161 38.3989 9.1161C38.2149 9.1161 38.0509 9.1001 37.9069 9.0681C37.8269 9.2761 37.7869 9.4481 37.7869 9.5841C37.7869 9.7121 37.8549 9.8001 37.9909 9.8481C38.1269 9.8961 38.4469 9.9241 38.9509 9.9321C39.9589 9.9401 40.6469 10.0761 41.0149 10.3401C41.3829 10.5961 41.5669 11.0641 41.5669 11.7441ZM37.4149 11.9241C37.4149 12.2681 37.8349 12.4401 38.6749 12.4401C39.5229 12.4401 39.9469 12.2401 39.9469 11.8401C39.9469 11.6241 39.8749 11.4841 39.7309 11.4201C39.5869 11.3641 39.2829 11.3321 38.8189 11.3241L37.7389 11.2401C37.5229 11.4561 37.4149 11.6841 37.4149 11.9241ZM37.5109 7.0161C37.5109 7.6001 37.8149 7.8921 38.4229 7.8921C39.0389 7.8921 39.3469 7.6001 39.3469 7.0161C39.3469 6.4241 39.0389 6.1281 38.4229 6.1281C37.8149 6.1281 37.5109 6.4241 37.5109 7.0161Z" fill="black"/>
<path d="M41.9771 5.0001H43.6571L44.6171 9.6321H44.9531L45.9611 5.0001H47.5931L46.1531 11.0001H43.4171L41.9771 5.0001Z" fill="black"/>
<path d="M53.0433 6.8721V9.3681C53.0593 9.5601 53.0913 9.6961 53.1393 9.7761C53.1873 9.8481 53.2873 9.9001 53.4393 9.9321L53.3913 11.1441C52.9833 11.1441 52.6553 11.1161 52.4073 11.0601C52.1673 11.0041 51.9233 10.8921 51.6753 10.7241C51.0993 11.0041 50.5113 11.1441 49.9113 11.1441C48.6713 11.1441 48.0513 10.4881 48.0513 9.1761C48.0513 8.5361 48.2233 8.0841 48.5673 7.8201C48.9113 7.5481 49.4393 7.3881 50.1513 7.3401L51.4353 7.2441V6.8721C51.4353 6.6241 51.3793 6.4561 51.2673 6.3681C51.1553 6.2721 50.9753 6.2241 50.7273 6.2241L48.4713 6.3201L48.4233 5.2041C49.2793 4.9721 50.0913 4.8561 50.8593 4.8561C51.6353 4.8561 52.1913 5.0161 52.5273 5.3361C52.8713 5.6561 53.0433 6.1681 53.0433 6.8721ZM50.3433 8.4561C49.8953 8.4961 49.6713 8.7361 49.6713 9.1761C49.6713 9.6161 49.8673 9.8361 50.2593 9.8361C50.5633 9.8361 50.8953 9.7881 51.2553 9.6921L51.4353 9.6441V8.3601L50.3433 8.4561Z" fill="black"/>
<path d="M59.8649 4.1361C58.9929 4.1361 58.5569 4.4241 58.5569 5.0001C58.5569 5.2561 58.6649 5.4521 58.8809 5.5881C59.0969 5.7241 59.6009 5.9201 60.3929 6.1761C61.1929 6.4321 61.7529 6.7241 62.0729 7.0521C62.3929 7.3721 62.5529 7.8681 62.5529 8.5401C62.5529 9.3961 62.2929 10.0441 61.7729 10.4841C61.2529 10.9241 60.5729 11.1441 59.7329 11.1441C59.1089 11.1441 58.3449 11.0481 57.4409 10.8561L57.0089 10.7721L57.1769 9.4881C58.2489 9.6321 59.0689 9.7041 59.6369 9.7041C60.4849 9.7041 60.9089 9.3521 60.9089 8.6481C60.9089 8.3921 60.8089 8.1921 60.6089 8.0481C60.4169 7.9041 60.0289 7.7481 59.4449 7.5801C58.5169 7.3161 57.8609 7.0041 57.4769 6.6441C57.1009 6.2761 56.9129 5.7681 56.9129 5.1201C56.9129 4.3041 57.1609 3.6961 57.6569 3.2961C58.1529 2.8961 58.8329 2.6961 59.6969 2.6961C60.2889 2.6961 61.0409 2.7761 61.9529 2.9361L62.3849 3.0201L62.2529 4.3281C61.1249 4.2001 60.3289 4.1361 59.8649 4.1361Z" fill="black"/>
<path d="M65.9843 4.8561C66.4003 4.8561 66.9323 4.9201 67.5803 5.0481L67.9043 5.1201L67.8563 6.3921C67.2243 6.3281 66.7563 6.2961 66.4523 6.2961C65.9003 6.2961 65.5323 6.4161 65.3483 6.6561C65.1723 6.8881 65.0843 7.3321 65.0843 7.9881C65.0843 8.6441 65.1723 9.0961 65.3483 9.3441C65.5323 9.5841 65.9043 9.7041 66.4643 9.7041L67.8563 9.6081L67.9043 10.8921C67.0483 11.0601 66.3963 11.1441 65.9483 11.1441C65.0603 11.1441 64.4203 10.8961 64.0283 10.4001C63.6443 9.8961 63.4523 9.0921 63.4523 7.9881C63.4523 6.8841 63.6523 6.0881 64.0523 5.6001C64.4523 5.1041 65.0963 4.8561 65.9843 4.8561Z" fill="black"/>
<path d="M70.7037 11.0001H69.0957V2.6001H70.7037V5.2881C71.2557 5.0001 71.7517 4.8561 72.1917 4.8561C72.9917 4.8561 73.5437 5.0921 73.8477 5.5641C74.1517 6.0361 74.3037 6.7641 74.3037 7.7481V11.0001H72.6957V7.7841C72.6957 7.2801 72.6357 6.9081 72.5157 6.6681C72.3957 6.4201 72.1557 6.2961 71.7957 6.2961C71.4837 6.2961 71.1717 6.3441 70.8597 6.4401L70.7037 6.4881V11.0001Z" fill="black"/>
<path d="M76.0526 5.6841C76.4766 5.1321 77.1846 4.8561 78.1766 4.8561C79.1686 4.8561 79.8766 5.1321 80.3006 5.6841C80.7246 6.2281 80.9366 6.9961 80.9366 7.9881C80.9366 10.0921 80.0166 11.1441 78.1766 11.1441C76.3366 11.1441 75.4166 10.0921 75.4166 7.9881C75.4166 6.9961 75.6286 6.2281 76.0526 5.6841ZM77.2886 9.3441C77.4566 9.6321 77.7526 9.7761 78.1766 9.7761C78.6006 9.7761 78.8926 9.6321 79.0526 9.3441C79.2206 9.0561 79.3046 8.6041 79.3046 7.9881C79.3046 7.3721 79.2206 6.9241 79.0526 6.6441C78.8926 6.3641 78.6006 6.2241 78.1766 6.2241C77.7526 6.2241 77.4566 6.3641 77.2886 6.6441C77.1286 6.9241 77.0486 7.3721 77.0486 7.9881C77.0486 8.6041 77.1286 9.0561 77.2886 9.3441Z" fill="black"/>
<path d="M82.4393 5.6841C82.8633 5.1321 83.5713 4.8561 84.5633 4.8561C85.5553 4.8561 86.2633 5.1321 86.6873 5.6841C87.1113 6.2281 87.3233 6.9961 87.3233 7.9881C87.3233 10.0921 86.4033 11.1441 84.5633 11.1441C82.7233 11.1441 81.8033 10.0921 81.8033 7.9881C81.8033 6.9961 82.0153 6.2281 82.4393 5.6841ZM83.6753 9.3441C83.8433 9.6321 84.1393 9.7761 84.5633 9.7761C84.9873 9.7761 85.2793 9.6321 85.4393 9.3441C85.6073 9.0561 85.6913 8.6041 85.6913 7.9881C85.6913 7.3721 85.6073 6.9241 85.4393 6.6441C85.2793 6.3641 84.9873 6.2241 84.5633 6.2241C84.1393 6.2241 83.8433 6.3641 83.6753 6.6441C83.5153 6.9241 83.4353 7.3721 83.4353 7.9881C83.4353 8.6041 83.5153 9.0561 83.6753 9.3441Z" fill="black"/>
<path d="M88.574 11.0001V2.6001H90.182V11.0001H88.574Z" fill="black"/>
<path d="M13.2547 2.34933C13.1252 2.24846 13.0028 2.15325 12.9081 2.0604C12.6375 1.79522 12.3939 1.50063 12.1582 1.21579C11.853 0.846957 11.5376 0.465447 11.1642 0.150095C11.0662 0.0675038 10.9545 0.0254367 10.8318 0.0254367L10.7992 0.0221379C10.7387 0.003707 10.6806 -0.00322349 10.6159 0.00137666C8.96531 0.113082 7.34881 0.128153 5.98503 0.128153C5.40714 0.128153 4.82909 0.125006 4.25114 0.121858C3.75774 0.119256 3.26418 0.116592 2.77059 0.115745C2.68853 0.115745 2.61359 0.132178 2.54671 0.164077C2.44176 0.202966 2.35995 0.269184 2.29608 0.364093C1.70696 1.23906 1.01863 2.11436 0.129577 3.11864C-0.0156963 3.28277 -0.0128031 3.45152 0.0150203 3.56401L0.0177596 3.57521L0.0171133 3.58668C0.0139123 3.6479 0.0196063 3.70138 0.0351493 3.75525C1.15754 7.64159 3.91757 11.3536 7.60759 13.9391C7.66604 13.98 7.72904 14 7.80048 14C9.40181 14.0002 13.4867 4.89488 13.9683 3.48439C14.0041 3.37943 14.0096 3.27792 13.9847 3.17472C13.909 2.85886 13.5614 2.58824 13.2547 2.34933ZM11.3467 1.91958L11.4027 1.80984L11.4805 1.90581C11.5565 1.99966 11.6325 2.09499 11.709 2.19066C11.9268 2.46391 12.1521 2.74637 12.3739 2.98936L12.485 3.11099L12.3188 3.12043C11.8287 3.14809 11.3001 3.16955 10.6559 3.18744L10.4878 3.19222L10.5904 3.06096C10.8225 2.76349 11.1181 2.36522 11.3467 1.91958ZM8.42441 1.08692C9.20898 1.0664 9.90697 1.03529 10.5586 0.991711L10.7033 0.982117L10.6219 1.12908C10.6172 1.13662 10.6122 1.1443 10.6084 1.15329C10.3752 1.68739 10.0455 2.14317 9.75382 2.51845L9.69629 2.59244L9.63175 2.52429C9.44185 2.32412 9.24869 2.1274 9.05518 1.93053C8.82795 1.69926 8.59286 1.46017 8.36751 1.21875L8.24873 1.0914L8.42441 1.08692ZM7.65108 1.91195L7.70922 1.97381C7.92147 2.19934 8.13904 2.41997 8.35643 2.64065C8.50099 2.78765 8.64602 2.93455 8.7892 3.08302L8.91705 3.21534L8.49145 3.2161C7.87552 3.2161 7.23084 3.21041 6.5748 3.19927L6.38632 3.19597L6.51965 3.06487C6.83426 2.75551 7.16503 2.41888 7.5922 1.97321L7.65108 1.91195ZM4.19128 1.10974C5.07831 1.11443 5.96487 1.11897 6.85165 1.11304L7.03884 1.11174L6.91044 1.24566C6.49524 1.67889 6.00239 2.18687 5.49436 2.67052L5.44075 2.72161L5.38526 2.67249C4.77994 2.13685 4.19463 1.6715 3.59612 1.24971L3.39191 1.10587L4.19128 1.10974ZM1.58138 2.94853C1.87036 2.60089 2.17177 2.21647 2.5027 1.77349L2.5589 1.69829L2.62485 1.76538C2.65175 1.79271 2.68244 1.81792 2.7159 1.84008C3.20675 2.16605 3.71025 2.54777 4.25505 3.00727L4.42627 3.15172L3.41561 3.12406C2.8242 3.10769 2.23286 3.09132 1.64171 3.07703L1.47828 3.07304L1.58138 2.94853ZM6.67114 11.9647C4.13625 9.80176 2.20036 7.03013 1.21995 4.16L1.18361 4.05366L1.29761 4.05626C2.01037 4.07263 2.72338 4.09227 3.43638 4.11197C3.98737 4.12711 4.53861 4.14224 5.08963 4.15592L5.1631 4.15776L5.16741 4.22985C5.33549 6.99942 5.88408 9.57187 6.79791 11.8765L6.91561 12.1732L6.67114 11.9647ZM9.36623 4.28133C9.31997 6.60129 8.90046 9.02106 8.04557 11.8966L7.9821 12.1103L7.89491 11.9046C6.92598 9.61581 6.34692 7.04521 6.17358 4.26432L6.16825 4.17904L6.25498 4.18074C7.07528 4.1965 7.81485 4.20422 8.51644 4.20422C8.77292 4.20422 9.02924 4.20322 9.28556 4.20086L9.36777 4.20023L9.36623 4.28133ZM12.6455 4.20026C11.7831 6.45984 10.721 8.31107 9.7954 9.82403L9.53815 10.2446L9.6488 9.76595C10.1027 7.80269 10.339 6.00076 10.3712 4.25634L10.3726 4.18089L10.4493 4.17904C11.2788 4.15876 11.9513 4.13186 12.5657 4.09406L12.689 4.08652L12.6455 4.20026Z" fill="#0B24FB"/>
</svg>
