<svg xmlns="http://www.w3.org/2000/svg" xmlns:xlink="http://www.w3.org/1999/xlink" version="1.1" x="0px" y="0px" viewBox="0 0 90 90" enable-background="new 0 0 90 90" xml:space="preserve" style="max-width:100%" height="100%"><g style="" fill="currentColor"><path d="M77,38.2l-6.4-9.6l3.2-11.2c0.2-0.7,0-1.5-0.5-2c-0.5-0.5-1.3-0.7-2-0.5l-11.2,3.3l-9.6-6.5c-0.6-0.4-1.4-0.5-2-0.1   c-0.6,0.3-1.1,1-1.1,1.7L47,24.9l-9.2,7.2c-0.6,0.4-0.9,1.2-0.7,1.9c0.1,0.7,0.6,1.3,1.3,1.6l8.6,3.1c-0.1,0-0.1,0.1-0.2,0.1   L13.7,72c-0.8,0.8-0.8,2,0,2.8c0.4,0.4,0.9,0.6,1.4,0.6c0.5,0,1-0.2,1.4-0.6l33.2-33.2c0.1-0.1,0.2-0.3,0.3-0.4l3.4,9.2   c0.2,0.7,0.9,1.2,1.6,1.3c0.1,0,0.2,0,0.3,0c0.6,0,1.2-0.3,1.6-0.8l7.1-9.2l11.5-0.4c0.7,0,1.4-0.4,1.7-1.1   C77.5,39.6,77.4,38.8,77,38.2z M62.8,37.8c-0.6,0-1.1,0.3-1.5,0.8l-5.5,7.1l-3.1-8.4c-0.2-0.6-0.6-1-1.2-1.2l-8.4-3l7-5.5   c0.5-0.4,0.7-0.9,0.8-1.5l0.3-8.9l7.4,5c0.5,0.3,1.1,0.4,1.7,0.3l8.6-2.5l-2.5,8.6c-0.2,0.6-0.1,1.2,0.3,1.7l5,7.4L62.8,37.8z" style="" fill="currentColor"></path></g></svg>