<svg xmlns="http://www.w3.org/2000/svg" xmlns:xlink="http://www.w3.org/1999/xlink" version="1.1"
	x="0px" y="0px" viewBox="0 0 90 90" enable-background="new 0 0 90 90" xml:space="preserve"
	style="max-width:100%" height="100%"><path d="M64.1,53.6c-6.3,0-9.9-3-12.3-4.9c-0.8-0.7-1.6-1.4-2.3-2c-1.1-0.9-2.4-2.1-2.8-2.2c0,0-0.2,0-0.2,0c-0.1,0-0.3,0-0.3,0  c-0.3,0.1-1.4,1.1-2.3,1.9c-0.8,0.7-1.8,1.5-2.8,2.3l-0.2,0.1c-2.7,2.1-6.1,4.8-12.1,4.8c-4.4,0-8.8-2-11.4-5.2  c-1.7-2.2-3.6-5.9-2.4-11.6c0.1-0.7,0.6-1.2,1.3-1.5c0.7-0.2,1.4-0.1,1.9,0.3c0,0,1.4,1.1,3.7,1.1c1.1,0,2.3-0.3,3.6-0.8  c2.1-0.9,3.5-3.5,5.1-5.3c2.1-2.4,4.6-5.1,8.5-5.1c2.8,0,5.2,1,7.5,3c2.2-2,4.7-3,7.4-3c4.1,0,6.5,2.7,8.7,5.1  c1.6,1.7,3.1,4.3,5.2,5.2c1.2,0.5,2.4,0.8,3.6,0.8c2.4,0,3.8-1.1,3.9-1.1c0.5-0.4,1.3-0.5,1.9-0.3c0.6,0.2,1.1,0.8,1.2,1.5  c1.1,5.6-0.8,9.3-2.6,11.5C73,51.5,68.6,53.6,64.1,53.6z M46.5,40.4c0.1,0,0.2,0,0.3,0c0,0,0.3,0,0.3,0c0,0,0.2,0,0.2,0  c1.4,0.2,2.8,1.4,4.8,3.2c0.7,0.6,1.4,1.2,2.2,1.9c2.2,1.8,4.9,4,9.8,4c3.3,0,6.6-1.5,8.5-3.9c1.3-1.6,1.9-3.4,2-5.5  c-0.9,0.3-2.1,0.5-3.4,0.5c-1.7,0-3.5-0.4-5.2-1.1c-2.8-1.3-4.8-4.3-6.5-6.2c-2.2-2.4-3.6-3.8-5.8-3.8c-2.9,0-4.7,1.8-5.9,3.2  c-0.4,0.4-0.9,0.7-1.5,0.7l0,0c-0.6,0-1.1-0.3-1.5-0.7c-1.2-1.4-3-3.2-5.9-3.2c-2.2,0-3.6,1.5-5.7,3.8c-1.7,1.9-3.6,5-6.5,6.2  c-1.7,0.8-3.4,1.1-5.1,1.1c-1.3,0-2.4-0.2-3.3-0.5c0,2.2,0.6,4.1,1.9,5.6c1.9,2.3,5.1,3.8,8.3,3.8c4.6,0,7.2-2,9.7-3.9l0.2-0.2  c1-0.8,1.9-1.5,2.7-2.2c1.8-1.5,3-2.5,4.2-2.8l0,0C45.4,40.5,46,40.4,46.5,40.4z" style="" fill="#3040c4"></path></svg>