<svg width="24" height="24" viewBox="0 0 24 24" fill="none" xmlns="http://www.w3.org/2000/svg">
	<path
		d="M7.704 10.28C8.05067 9.84267 8.56267 9.624 9.24 9.624C9.91733 9.624 10.4267 9.84267 10.768 10.28C11.1147 10.7173 11.288 11.4213 11.288 12.392C11.288 13.3573 11.1173 14.0507 10.776 14.472C10.4347 14.888 9.92267 15.096 9.24 15.096C8.55733 15.096 8.04533 14.888 7.704 14.472C7.36267 14.0507 7.192 13.3573 7.192 12.392C7.192 11.4213 7.36267 10.7173 7.704 10.28ZM10.152 12.368C10.152 11.7067 10.0827 11.2453 9.944 10.984C9.80533 10.7173 9.57067 10.584 9.24 10.584C8.91467 10.584 8.68 10.7173 8.536 10.984C8.39733 11.2507 8.328 11.712 8.328 12.368C8.328 13.024 8.4 13.4827 8.544 13.744C8.688 14.0053 8.92267 14.136 9.248 14.136C9.57333 14.136 9.80533 14.0053 9.944 13.744C10.0827 13.4827 10.152 13.024 10.152 12.368ZM14.8206 9.72V15H13.7166V10.968L12.5726 11.704L12.0686 10.88L13.8126 9.72H14.8206ZM16.4011 15V13.672H17.5531V15H16.4011Z"
		fill="#3343BD" />
</svg>