<svg xmlns="http://www.w3.org/2000/svg" xmlns:xlink="http://www.w3.org/1999/xlink" version="1.1"
	x="0px" y="0px" viewBox="0 0 90 90" enable-background="new 0 0 90 90" xml:space="preserve"
	style="max-width:100%" height="100%"><g style="" fill="currentColor"><path d="M56.8,13.2h-24c-3.3,0-6,2.7-6,6v52c0,3.3,2.7,6,6,6h24c3.3,0,6-2.7,6-6v-52C62.8,15.9,60.1,13.2,56.8,13.2z M58.8,71.2   c0,1.1-0.9,2-2,2h-24c-1.1,0-2-0.9-2-2v-52c0-1.1,0.9-2,2-2h24c1.1,0,2,0.9,2,2V71.2z M44.7,63.3c-2.2,0-4,1.8-4,4c0,2.2,1.8,4,4,4   c2.2,0,4-1.8,4-4C48.7,65,47,63.3,44.7,63.3z M48.8,19.2h-8c-1.1,0-2,0.9-2,2c0,1.1,0.9,2,2,2h8c1.1,0,2-0.9,2-2   C50.8,20.1,49.9,19.2,48.8,19.2z" style="" fill="#3040c4"></path></g></svg>