<svg width="24" height="24" viewBox="0 0 24 24" fill="none" xmlns="http://www.w3.org/2000/svg">
<path d="M9.49984 11.1666C9.66466 11.1666 9.82578 11.1178 9.96282 11.0262C10.0999 10.9346 10.2067 10.8045 10.2697 10.6522C10.3328 10.4999 10.3493 10.3324 10.3172 10.1707C10.285 10.0091 10.2056 9.86058 10.0891 9.74404C9.97255 9.62749 9.82407 9.54813 9.66242 9.51597C9.50077 9.48382 9.33321 9.50032 9.18094 9.56339C9.02867 9.62647 8.89852 9.73328 8.80695 9.87032C8.71538 10.0074 8.66651 10.1685 8.66651 10.3333C8.66651 10.5543 8.7543 10.7663 8.91059 10.9225C9.06687 11.0788 9.27883 11.1666 9.49984 11.1666ZM11.9998 3.66663C10.3517 3.66663 8.7405 4.15537 7.37009 5.07105C5.99968 5.98672 4.93158 7.28821 4.30084 8.81093C3.67011 10.3336 3.50509 12.0092 3.82663 13.6257C4.14817 15.2422 4.94185 16.7271 6.10728 17.8925C7.27272 19.058 8.75758 19.8516 10.3741 20.1732C11.9906 20.4947 13.6662 20.3297 15.1889 19.699C16.7116 19.0682 18.0131 18.0001 18.9288 16.6297C19.8444 15.2593 20.3332 13.6481 20.3332 12C20.3332 10.9056 20.1176 9.82198 19.6988 8.81093C19.28 7.79988 18.6662 6.88122 17.8924 6.1074C17.1186 5.33358 16.1999 4.71975 15.1889 4.30096C14.1778 3.88217 13.0942 3.66663 11.9998 3.66663V3.66663ZM11.9998 18.6666C10.6813 18.6666 9.39237 18.2756 8.29604 17.5431C7.19971 16.8105 6.34523 15.7694 5.84064 14.5512C5.33606 13.333 5.20404 11.9926 5.46127 10.6994C5.71851 9.40615 6.35345 8.21826 7.2858 7.28591C8.21815 6.35356 9.40603 5.71863 10.6992 5.46139C11.9924 5.20416 13.3329 5.33618 14.5511 5.84076C15.7692 6.34535 16.8104 7.19983 17.543 8.29616C18.2755 9.39249 18.6665 10.6814 18.6665 12C18.6665 13.7681 17.9641 15.4638 16.7139 16.714C15.4636 17.9642 13.768 18.6666 11.9998 18.6666V18.6666ZM14.4998 12.8333H9.49984C9.27883 12.8333 9.06687 12.9211 8.91059 13.0774C8.7543 13.2337 8.66651 13.4456 8.66651 13.6666C8.66651 14.5507 9.0177 15.3985 9.64282 16.0236C10.2679 16.6488 11.1158 17 11.9998 17C12.8839 17 13.7317 16.6488 14.3569 16.0236C14.982 15.3985 15.3332 14.5507 15.3332 13.6666C15.3332 13.4456 15.2454 13.2337 15.0891 13.0774C14.9328 12.9211 14.7209 12.8333 14.4998 12.8333ZM11.9998 15.3333C11.7076 15.333 11.4205 15.2558 11.1675 15.1096C10.9144 14.9633 10.7043 14.7531 10.5582 14.5H13.4415C13.2954 14.7531 13.0852 14.9633 12.8322 15.1096C12.5792 15.2558 12.2921 15.333 11.9998 15.3333ZM14.4998 9.49996C14.335 9.49996 14.1739 9.54883 14.0369 9.6404C13.8998 9.73197 13.793 9.86212 13.7299 10.0144C13.6669 10.1667 13.6504 10.3342 13.6825 10.4959C13.7147 10.6575 13.794 10.806 13.9106 10.9225C14.0271 11.0391 14.1756 11.1185 14.3373 11.1506C14.4989 11.1828 14.6665 11.1663 14.8187 11.1032C14.971 11.0401 15.1012 10.9333 15.1927 10.7963C15.2843 10.6592 15.3332 10.4981 15.3332 10.3333C15.3332 10.1123 15.2454 9.90032 15.0891 9.74404C14.9328 9.58776 14.7209 9.49996 14.4998 9.49996Z" fill="#3343BD"/>
</svg>
