<svg width="24" height="24" viewBox="0 0 24 24" fill="none" xmlns="http://www.w3.org/2000/svg">
<path d="M7.704 10.28C8.05067 9.84267 8.56267 9.624 9.24 9.624C9.91733 9.624 10.4267 9.84267 10.768 10.28C11.1147 10.7173 11.288 11.4213 11.288 12.392C11.288 13.3573 11.1173 14.0507 10.776 14.472C10.4347 14.888 9.92267 15.096 9.24 15.096C8.55733 15.096 8.04533 14.888 7.704 14.472C7.36267 14.0507 7.192 13.3573 7.192 12.392C7.192 11.4213 7.36267 10.7173 7.704 10.28ZM10.152 12.368C10.152 11.7067 10.0827 11.2453 9.944 10.984C9.80533 10.7173 9.57067 10.584 9.24 10.584C8.91467 10.584 8.68 10.7173 8.536 10.984C8.39733 11.2507 8.328 11.712 8.328 12.368C8.328 13.024 8.4 13.4827 8.544 13.744C8.688 14.0053 8.92267 14.136 9.248 14.136C9.57333 14.136 9.80533 14.0053 9.944 13.744C10.0827 13.4827 10.152 13.024 10.152 12.368ZM15.4206 15H11.9966V14.064L13.1246 12.92C13.5246 12.5093 13.8019 12.1947 13.9566 11.976C14.1166 11.7573 14.1966 11.5253 14.1966 11.28C14.1966 11.0293 14.1299 10.8533 13.9966 10.752C13.8686 10.6507 13.6846 10.6 13.4446 10.6C13.0872 10.6 12.6979 10.632 12.2766 10.696L12.0846 10.72L12.0286 9.864C12.5512 9.704 13.0926 9.624 13.6526 9.624C14.7726 9.624 15.3326 10.128 15.3326 11.136C15.3326 11.5307 15.2472 11.872 15.0766 12.16C14.9059 12.448 14.5966 12.7973 14.1486 13.208L13.2286 14.04H15.4206V15ZM16.4011 15V13.672H17.5531V15H16.4011Z" fill="#3343BD"/>
</svg>
