<svg width="24" height="24" viewBox="0 0 24 24" fill="none" xmlns="http://www.w3.org/2000/svg">
<path d="M7.704 10.28C8.05067 9.84267 8.56267 9.624 9.24 9.624C9.91733 9.624 10.4267 9.84267 10.768 10.28C11.1147 10.7173 11.288 11.4213 11.288 12.392C11.288 13.3573 11.1173 14.0507 10.776 14.472C10.4347 14.888 9.92267 15.096 9.24 15.096C8.55733 15.096 8.04533 14.888 7.704 14.472C7.36267 14.0507 7.192 13.3573 7.192 12.392C7.192 11.4213 7.36267 10.7173 7.704 10.28ZM10.152 12.368C10.152 11.7067 10.0827 11.2453 9.944 10.984C9.80533 10.7173 9.57067 10.584 9.24 10.584C8.91467 10.584 8.68 10.7173 8.536 10.984C8.39733 11.2507 8.328 11.712 8.328 12.368C8.328 13.024 8.4 13.4827 8.544 13.744C8.688 14.0053 8.92267 14.136 9.248 14.136C9.57333 14.136 9.80533 14.0053 9.944 13.744C10.0827 13.4827 10.152 13.024 10.152 12.368ZM11.9726 9.912C12.4632 9.72 13.0099 9.624 13.6126 9.624C14.2206 9.624 14.6632 9.74133 14.9406 9.976C15.2179 10.2053 15.3566 10.576 15.3566 11.088C15.3566 11.6 15.1512 11.992 14.7406 12.264C14.9966 12.4027 15.1779 12.5467 15.2846 12.696C15.3966 12.8453 15.4526 13.0827 15.4526 13.408C15.4526 13.9787 15.3086 14.4027 15.0206 14.68C14.7379 14.9573 14.2819 15.096 13.6526 15.096C13.1886 15.096 12.7006 15.0267 12.1886 14.888L11.9326 14.824L11.9886 13.984C12.5859 14.0853 13.0872 14.136 13.4926 14.136C14.0419 14.136 14.3166 13.9013 14.3166 13.432C14.3166 13.2347 14.2446 13.0773 14.1006 12.96C13.9619 12.8427 13.7779 12.784 13.5486 12.784H12.4846V11.872H13.5486C13.7246 11.872 13.8792 11.7973 14.0126 11.648C14.1512 11.4987 14.2206 11.3333 14.2206 11.152C14.2206 10.7733 13.9566 10.584 13.4286 10.584C13.0606 10.584 12.6686 10.6213 12.2526 10.696L12.0446 10.728L11.9726 9.912ZM16.4011 15V13.672H17.5531V15H16.4011Z" fill="#3343BD"/>
</svg>
