<svg width="24" height="24" viewBox="0 0 24 24" fill="none" xmlns="http://www.w3.org/2000/svg">
<path d="M13.9665 13.8583C13.4094 14.3074 12.7154 14.5524 11.9998 14.5524C11.2843 14.5524 10.5902 14.3074 10.0332 13.8583C9.86299 13.7168 9.64359 13.6488 9.42324 13.6691C9.20288 13.6894 8.99962 13.7964 8.85817 13.9666C8.71673 14.1368 8.64867 14.3562 8.66899 14.5766C8.68931 14.7969 8.79633 15.0002 8.96651 15.1416C9.81762 15.8521 10.8911 16.2413 11.9998 16.2413C13.1085 16.2413 14.1821 15.8521 15.0332 15.1416C15.2034 15.0002 15.3104 14.7969 15.3307 14.5766C15.351 14.3562 15.283 14.1368 15.1415 13.9666C15.0715 13.8824 14.9855 13.8127 14.8886 13.7617C14.7916 13.7106 14.6856 13.6792 14.5764 13.6691C14.3561 13.6488 14.1367 13.7168 13.9665 13.8583V13.8583ZM9.67484 10.7833C9.83098 10.9385 10.0422 11.0256 10.2623 11.0256C10.4825 11.0256 10.6937 10.9385 10.8498 10.7833C11.0051 10.6272 11.0922 10.4159 11.0922 10.1958C11.0922 9.97564 11.0051 9.76443 10.8498 9.60829C10.3729 9.15579 9.74059 8.90353 9.08317 8.90353C8.42576 8.90353 7.79341 9.15579 7.31651 9.60829C7.22927 9.683 7.15842 9.77493 7.1084 9.87832C7.05838 9.98171 7.03027 10.0943 7.02584 10.2091C7.02141 10.3238 7.04075 10.4383 7.08264 10.5452C7.12454 10.6522 7.18809 10.7493 7.2693 10.8305C7.35051 10.9117 7.44763 10.9753 7.55457 11.0172C7.66151 11.0591 7.77595 11.0784 7.89072 11.074C8.00548 11.0695 8.1181 11.0414 8.22148 10.9914C8.32487 10.9414 8.4168 10.8705 8.49151 10.7833C8.56898 10.7052 8.66114 10.6432 8.76269 10.6009C8.86424 10.5586 8.97316 10.5368 9.08317 10.5368C9.19318 10.5368 9.30211 10.5586 9.40365 10.6009C9.5052 10.6432 9.59737 10.7052 9.67484 10.7833V10.7833ZM16.6832 9.60829C16.2063 9.15579 15.5739 8.90353 14.9165 8.90353C14.2591 8.90353 13.6267 9.15579 13.1498 9.60829C13.0133 9.76771 12.942 9.97277 12.9501 10.1825C12.9582 10.3922 13.0451 10.5912 13.1935 10.7396C13.342 10.888 13.5409 10.975 13.7506 10.9831C13.9604 10.9912 14.1654 10.9198 14.3248 10.7833C14.4023 10.7052 14.4945 10.6432 14.596 10.6009C14.6976 10.5586 14.8065 10.5368 14.9165 10.5368C15.0265 10.5368 15.1354 10.5586 15.237 10.6009C15.3385 10.6432 15.4307 10.7052 15.5082 10.7833C15.6643 10.9385 15.8755 11.0256 16.0957 11.0256C16.3158 11.0256 16.527 10.9385 16.6832 10.7833C16.8384 10.6272 16.9255 10.4159 16.9255 10.1958C16.9255 9.97564 16.8384 9.76443 16.6832 9.60829V9.60829ZM11.9998 3.66663C10.3517 3.66663 8.7405 4.15537 7.37009 5.07105C5.99968 5.98672 4.93158 7.28821 4.30084 8.81093C3.67011 10.3336 3.50509 12.0092 3.82663 13.6257C4.14817 15.2422 4.94185 16.7271 6.10728 17.8925C7.27272 19.058 8.75758 19.8516 10.3741 20.1732C11.9906 20.4947 13.6662 20.3297 15.1889 19.699C16.7116 19.0682 18.0131 18.0001 18.9288 16.6297C19.8444 15.2593 20.3332 13.6481 20.3332 12C20.3332 10.9056 20.1176 9.82198 19.6988 8.81093C19.28 7.79988 18.6662 6.88122 17.8924 6.1074C17.1186 5.33358 16.1999 4.71975 15.1889 4.30096C14.1778 3.88217 13.0942 3.66663 11.9998 3.66663V3.66663ZM11.9998 18.6666C10.6813 18.6666 9.39237 18.2756 8.29604 17.5431C7.19971 16.8105 6.34523 15.7694 5.84064 14.5512C5.33606 13.333 5.20404 11.9926 5.46127 10.6994C5.71851 9.40615 6.35345 8.21826 7.2858 7.28591C8.21815 6.35356 9.40603 5.71863 10.6992 5.46139C11.9924 5.20416 13.3329 5.33618 14.5511 5.84076C15.7692 6.34535 16.8104 7.19983 17.543 8.29616C18.2755 9.39249 18.6665 10.6814 18.6665 12C18.6665 13.7681 17.9641 15.4638 16.7139 16.714C15.4636 17.9642 13.768 18.6666 11.9998 18.6666V18.6666Z" fill="#3343BD"/>
</svg>
